<svg width="23" height="20" viewBox="0 0 23 20" fill="none" xmlns="http://www.w3.org/2000/svg">
<g id="youtube 1">
<path id="Vector" d="M21.4709 4.84699C21.2256 3.92316 20.5027 3.19559 19.5848 2.94867C17.9211 2.5 11.25 2.5 11.25 2.5C11.25 2.5 4.5789 2.5 2.91518 2.94867C1.99733 3.19563 1.27444 3.92316 1.02909 4.84699C0.583305 6.52148 0.583305 10.0152 0.583305 10.0152C0.583305 10.0152 0.583305 13.5088 1.02909 15.1833C1.27444 16.1071 1.99733 16.8044 2.91518 17.0513C4.5789 17.5 11.25 17.5 11.25 17.5C11.25 17.5 17.9211 17.5 19.5848 17.0513C20.5027 16.8044 21.2256 16.1071 21.4709 15.1833C21.9167 13.5088 21.9167 10.0152 21.9167 10.0152C21.9167 10.0152 21.9167 6.52148 21.4709 4.84699ZM9.06816 13.1871V6.84316L14.6439 10.0152L9.06816 13.1871Z" fill="#AD4C4C"/>
</g>
</svg>
